<svg aria-hidden="true" style="position:absolute;width:0;height:0;overflow:hidden" xmlns="http://www.w3.org/2000/svg"><defs><symbol id="icon-icon_twit" viewBox="0 0 32 32"><path fill="#fff" style="fill:var(--color1, #fff)" d="M32 16c0 4.418-1.791 8.418-4.686 11.314S20.419 32 16 32s-8.418-1.791-11.314-4.686C1.791 24.419 0 20.419 0 16S1.791 7.582 4.686 4.686 11.581 0 16 0c4.418 0 8.418 1.791 11.314 4.686S32 11.581 32 16z"/><path fill="#afb1b8" style="fill:var(--color2, #afb1b8)" d="M23.273 11.49a6.248 6.248 0 0 1-1.718.471 2.967 2.967 0 0 0 1.312-1.648 5.963 5.963 0 0 1-1.891.722 2.981 2.981 0 0 0-5.158 2.039c0 .236.02.464.069.68a8.439 8.439 0 0 1-6.146-3.119 2.985 2.985 0 0 0 .917 3.985 2.943 2.943 0 0 1-1.347-.367v.033a2.996 2.996 0 0 0 2.389 2.93 2.992 2.992 0 0 1-.782.098 2.64 2.64 0 0 1-.565-.051 3.01 3.01 0 0 0 2.786 2.077 5.991 5.991 0 0 1-3.697 1.272 5.59 5.59 0 0 1-.714-.041 8.393 8.393 0 0 0 4.575 1.338c5.487 0 8.487-4.545 8.487-8.485 0-.132-.005-.259-.011-.385a5.95 5.95 0 0 0 1.495-1.548z"/></symbol><symbol id="icon-icon_inst" viewBox="0 0 32 32"><path fill="#fff" style="fill:var(--color1, #fff)" opacity=".1" d="M32 16v.021a15.9 15.9 0 0 1-4.686 11.293 15.902 15.902 0 0 1-11.293 4.687h-.022H16h-.02a15.9 15.9 0 0 1-11.293-4.686A15.902 15.902 0 0 1 0 16.022v-.021.001-.02A15.9 15.9 0 0 1 4.686 4.689 15.902 15.902 0 0 1 15.979.002H16h-.001.02a15.9 15.9 0 0 1 11.293 4.686 15.902 15.902 0 0 1 4.687 11.293v.021-.001z"/><path fill="#fff" style="fill:var(--color1, #fff)" d="M23.258 13.004c-.033-.773-.159-1.304-.337-1.764a3.57 3.57 0 0 0-.841-1.29l-.001-.001a3.583 3.583 0 0 0-1.263-.83l-.024-.008c-.463-.179-.991-.304-1.764-.337-.778-.037-1.025-.046-3.001-.046s-2.222.009-2.998.043c-.773.033-1.304.159-1.764.338a3.58 3.58 0 0 0-1.29.84l-.001.001c-.36.354-.645.784-.83 1.263l-.008.024c-.18.463-.304.991-.338 1.764-.037.778-.046 1.025-.046 3.001s.009 2.222.043 2.998c.034.773.159 1.304.338 1.764.194.505.48.935.84 1.29h.001c.364.369.804.656 1.287.838.463.18.992.305 1.764.338.776.034 1.023.043 2.998.043s2.222-.009 2.998-.043c.773-.033 1.304-.159 1.764-.337a3.741 3.741 0 0 0 2.12-2.104l.009-.025c.179-.463.304-.992.338-1.764.034-.776.042-1.023.042-2.998s-.003-2.222-.036-2.998zm-1.309 5.939c-.032.711-.151 1.094-.25 1.349a2.428 2.428 0 0 1-1.365 1.376l-.016.006c-.255.099-.641.218-1.349.249-.767.034-.997.043-2.938.043s-2.174-.009-2.938-.043c-.711-.031-1.094-.151-1.35-.25a2.237 2.237 0 0 1-.834-.542l-.001-.001a2.268 2.268 0 0 1-.538-.819l-.005-.016c-.099-.256-.218-.642-.249-1.35-.034-.767-.043-.998-.043-2.938s.009-2.175.043-2.938c.031-.711.151-1.094.249-1.35.122-.328.308-.608.545-.835l.001-.001c.229-.235.509-.42.821-.537l.016-.005c.255-.099.641-.218 1.349-.25.767-.033.998-.042 2.938-.042 1.943 0 2.174.008 2.938.042.711.031 1.094.151 1.35.25.315.116.602.301.835.543.241.236.426.52.543.836.099.255.218.641.249 1.349.034.767.043.997.043 2.938s-.009 2.167-.043 2.935z"/><path fill="#fff" style="fill:var(--color1, #fff)" d="M16.027 12.265a3.737 3.737 0 0 0-3.737 3.737v.001a3.737 3.737 0 1 0 3.737-3.737h-.001zm0 6.16a2.424 2.424 0 1 1 0-4.848 2.424 2.424 0 1 1 0 4.848zm4.757-6.308a.873.873 0 0 1-1.746 0 .873.873 0 0 1 1.746 0z"/></symbol><symbol id="icon-icon_in" viewBox="0 0 32 32"><path fill="#fff" style="fill:var(--color1, #fff)" opacity=".1" d="M32 16v.02a15.9 15.9 0 0 1-4.686 11.293A15.902 15.902 0 0 1 16.021 32H16h.001-.02a15.9 15.9 0 0 1-11.293-4.686A15.902 15.902 0 0 1 .001 16.021V16v.001-.02A15.9 15.9 0 0 1 4.687 4.688 15.902 15.902 0 0 1 15.98.001h.021H16h.02a15.9 15.9 0 0 1 11.293 4.686A15.902 15.902 0 0 1 32 15.98v.021V16z"/><path fill="#fff" style="fill:var(--color1, #fff)" d="M23.269 23.273h.004v-5.335c0-2.609-.562-4.62-3.613-4.62-1.466 0-2.451.804-2.852 1.568h-.042v-1.324h-2.893v9.711h3.012v-4.808c0-1.266.24-2.491 1.808-2.491 1.545 0 1.567 1.445 1.567 2.572v4.728h3.009zM8.967 13.562h3.016v9.711H8.967v-9.711zm1.507-4.835c-.965 0-1.747.782-1.747 1.747 0 .964.783 1.763 1.747 1.763s1.746-.799 1.746-1.763c0-.964-.782-1.746-1.746-1.747z"/></symbol><symbol id="icon-icon_fb" viewBox="0 0 32 32"><path fill="#fff" style="fill:var(--color1, #fff)" opacity=".1" d="M32 16v.02a15.9 15.9 0 0 1-4.686 11.293A15.902 15.902 0 0 1 16.021 32H16h.001-.02a15.9 15.9 0 0 1-11.293-4.686A15.902 15.902 0 0 1 .001 16.021V16v.001-.02A15.9 15.9 0 0 1 4.687 4.688 15.902 15.902 0 0 1 15.98.001h.021H16h.02a15.9 15.9 0 0 1 11.293 4.686A15.902 15.902 0 0 1 32 15.98v.021V16z"/><path fill="#fff" style="fill:var(--color1, #fff)" d="M18.422 11.142h1.329V8.829c-.56-.065-1.21-.102-1.867-.102h-.071.004c-1.915 0-3.226 1.204-3.226 3.418v2.036h-2.113v2.585h2.113v6.505h2.591v-6.505h2.027l.322-2.585h-2.35v-1.782c0-.747.201-1.258 1.243-1.258z"/></symbol></defs></svg>